# xmcd
#
# Track frame offsets:
#	150
#	23916
#	39654
#	59988
#	72841
#	88396
#	102196
#	112900
#	123240
#	136077
#	149573
#	161658
#	170391
#	186293
#	206721
#	223623
#	239768
#	259306
#	280200
#	299290
#	318933
#	331178
#
# Disc length: 4599 seconds
#
# Revision: 0
# Processed by: cddbd v1.5.1PL2 Copyright (c) Steve Scherf et al.
# Submitted via: EasyCDDAExtractor 9.1.3.1
#
DISCID=5e11f516
DTITLE=Сестри Аджови
DYEAR=1900
DGENRE=
TTITLE0=Канят  ме  мамо  на  тежка  сватба
TTITLE1=Цигани  свирят
TTITLE2=Стоя  в  механата
TTITLE3=Мария , Мария
TTITLE4=Трендафилът мирише
TTITLE5=Една самотна чайка
TTITLE6=За да има голяма любов, трябва първа да има
TTITLE7=Много се време веч мина
TTITLE8=Анастасия
TTITLE9=Щом пролетта настъпи
TTITLE10=Бе тъжна нощ
TTITLE11=Гарванът
TTITLE12=Милена
TTITLE13=Ти жесток си
TTITLE14=Не се карай стара ле майко
TTITLE15=Давай ми мила мамо
TTITLE16=Моме лично Ленче
TTITLE17=Илия, Илия
TTITLE18=Жалба за младост
TTITLE19=Твойто лице бяло
TTITLE20=Легнала е Лиляна
TTITLE21=Судбо моя
EXTD=
EXTT0=
EXTT1=
EXTT2=
EXTT3=
EXTT4=
EXTT5=
EXTT6=
EXTT7=
EXTT8=
EXTT9=
EXTT10=
EXTT11=
EXTT12=
EXTT13=
EXTT14=
EXTT15=
EXTT16=
EXTT17=
EXTT18=
EXTT19=
EXTT20=
EXTT21=
PLAYORDER=
